<mxfile host="Electron" agent="Mozilla/5.0 (Windows NT 10.0; Win64; x64) AppleWebKit/537.36 (KHTML, like Gecko) draw.io/24.7.8 Chrome/128.0.6613.36 Electron/32.0.1 Safari/537.36" version="24.7.8">
  <diagram name="Page-1" id="mQ8qg5h1NSNYRb1As4we">
    <mxGraphModel dx="1034" dy="528" grid="1" gridSize="10" guides="1" tooltips="1" connect="1" arrows="1" fold="1" page="1" pageScale="1" pageWidth="1169" pageHeight="827" math="0" shadow="0">
      <root>
        <mxCell id="0" />
        <mxCell id="1" parent="0" />
        <mxCell id="npE6UcHxAFBTRUkKk0RT-9" value="GRAFILES FRONTEND" style="rounded=0;whiteSpace=wrap;html=1;verticalAlign=top;" parent="1" vertex="1">
          <mxGeometry x="270" y="440" width="200" height="90" as="geometry" />
        </mxCell>
        <mxCell id="Uaa25SnmF0XbRMPknDft-11" value="MIDDLEWARE" style="rounded=0;whiteSpace=wrap;html=1;verticalAlign=top;" parent="1" vertex="1">
          <mxGeometry x="520" y="400" width="200" height="260" as="geometry" />
        </mxCell>
        <mxCell id="Uaa25SnmF0XbRMPknDft-7" value="DATOS" style="ellipse;whiteSpace=wrap;html=1;align=center;newEdgeStyle={&quot;edgeStyle&quot;:&quot;entityRelationEdgeStyle&quot;,&quot;startArrow&quot;:&quot;none&quot;,&quot;endArrow&quot;:&quot;none&quot;,&quot;segment&quot;:10,&quot;curved&quot;:1,&quot;sourcePerimeterSpacing&quot;:0,&quot;targetPerimeterSpacing&quot;:0};treeFolding=1;treeMoving=1;" parent="1" vertex="1">
          <mxGeometry x="580" y="527.5" width="80" height="25" as="geometry" />
        </mxCell>
        <mxCell id="Uaa25SnmF0XbRMPknDft-9" value="DATA" style="rounded=0;whiteSpace=wrap;html=1;verticalAlign=top;" parent="1" vertex="1">
          <mxGeometry x="760" y="400" width="200" height="180" as="geometry" />
        </mxCell>
        <mxCell id="Uaa25SnmF0XbRMPknDft-14" value="" style="curved=1;endArrow=classic;html=1;rounded=0;" parent="1" source="Uaa25SnmF0XbRMPknDft-42" target="Uaa25SnmF0XbRMPknDft-24" edge="1">
          <mxGeometry x="-0.2776" y="-6" width="50" height="50" relative="1" as="geometry">
            <mxPoint x="830" y="480" as="sourcePoint" />
            <mxPoint x="790" y="534" as="targetPoint" />
            <Array as="points" />
            <mxPoint as="offset" />
          </mxGeometry>
        </mxCell>
        <mxCell id="Uaa25SnmF0XbRMPknDft-15" value="" style="curved=1;endArrow=classic;html=1;rounded=0;" parent="1" source="Uaa25SnmF0XbRMPknDft-43" target="Uaa25SnmF0XbRMPknDft-42" edge="1">
          <mxGeometry width="50" height="50" relative="1" as="geometry">
            <mxPoint x="670" y="460" as="sourcePoint" />
            <mxPoint x="810" y="460" as="targetPoint" />
            <Array as="points">
              <mxPoint x="710" y="460" />
            </Array>
          </mxGeometry>
        </mxCell>
        <mxCell id="Uaa25SnmF0XbRMPknDft-19" value="" style="curved=1;endArrow=classic;html=1;rounded=0;" parent="1" source="Uaa25SnmF0XbRMPknDft-7" target="Uaa25SnmF0XbRMPknDft-7" edge="1">
          <mxGeometry width="50" height="50" relative="1" as="geometry">
            <mxPoint x="770" y="489" as="sourcePoint" />
            <mxPoint x="624" y="475" as="targetPoint" />
            <Array as="points">
              <mxPoint x="550" y="520" />
            </Array>
          </mxGeometry>
        </mxCell>
        <mxCell id="Uaa25SnmF0XbRMPknDft-24" value="DATOS" style="ellipse;whiteSpace=wrap;html=1;align=center;newEdgeStyle={&quot;edgeStyle&quot;:&quot;entityRelationEdgeStyle&quot;,&quot;startArrow&quot;:&quot;none&quot;,&quot;endArrow&quot;:&quot;none&quot;,&quot;segment&quot;:10,&quot;curved&quot;:1,&quot;sourcePerimeterSpacing&quot;:0,&quot;targetPerimeterSpacing&quot;:0};treeFolding=1;treeMoving=1;" parent="1" vertex="1">
          <mxGeometry x="820" y="527.5" width="80" height="25" as="geometry" />
        </mxCell>
        <mxCell id="Uaa25SnmF0XbRMPknDft-25" value="" style="curved=1;endArrow=classic;html=1;rounded=0;" parent="1" source="Uaa25SnmF0XbRMPknDft-24" target="Uaa25SnmF0XbRMPknDft-7" edge="1">
          <mxGeometry width="50" height="50" relative="1" as="geometry">
            <mxPoint x="655" y="474" as="sourcePoint" />
            <mxPoint x="784" y="467" as="targetPoint" />
            <Array as="points">
              <mxPoint x="730" y="504" />
            </Array>
          </mxGeometry>
        </mxCell>
        <mxCell id="Uaa25SnmF0XbRMPknDft-26" value="ERROR" style="ellipse;whiteSpace=wrap;html=1;align=center;newEdgeStyle={&quot;edgeStyle&quot;:&quot;entityRelationEdgeStyle&quot;,&quot;startArrow&quot;:&quot;none&quot;,&quot;endArrow&quot;:&quot;none&quot;,&quot;segment&quot;:10,&quot;curved&quot;:1,&quot;sourcePerimeterSpacing&quot;:0,&quot;targetPerimeterSpacing&quot;:0};treeFolding=1;treeMoving=1;" parent="1" vertex="1">
          <mxGeometry x="580" y="610" width="80" height="25" as="geometry" />
        </mxCell>
        <mxCell id="Uaa25SnmF0XbRMPknDft-28" value="" style="curved=1;endArrow=classic;html=1;rounded=0;" parent="1" source="Uaa25SnmF0XbRMPknDft-7" target="Uaa25SnmF0XbRMPknDft-26" edge="1">
          <mxGeometry width="50" height="50" relative="1" as="geometry">
            <mxPoint x="800" y="516" as="sourcePoint" />
            <mxPoint x="635" y="516" as="targetPoint" />
            <Array as="points" />
          </mxGeometry>
        </mxCell>
        <mxCell id="Uaa25SnmF0XbRMPknDft-33" value="" style="curved=1;endArrow=classic;html=1;rounded=0;" parent="1" source="Uaa25SnmF0XbRMPknDft-26" target="npE6UcHxAFBTRUkKk0RT-1" edge="1">
          <mxGeometry x="-0.109" y="3" width="50" height="50" relative="1" as="geometry">
            <mxPoint x="586" y="529" as="sourcePoint" />
            <mxPoint x="397.6190298673034" y="557.7550906289807" as="targetPoint" />
            <Array as="points">
              <mxPoint x="510" y="630" />
            </Array>
            <mxPoint as="offset" />
          </mxGeometry>
        </mxCell>
        <mxCell id="Uaa25SnmF0XbRMPknDft-30" value="" style="curved=1;endArrow=classic;html=1;rounded=0;" parent="1" source="Uaa25SnmF0XbRMPknDft-7" target="npE6UcHxAFBTRUkKk0RT-1" edge="1">
          <mxGeometry x="0.0315" y="-7" width="50" height="50" relative="1" as="geometry">
            <mxPoint x="800" y="516" as="sourcePoint" />
            <mxPoint x="394.2721803056197" y="471.6772384318706" as="targetPoint" />
            <Array as="points">
              <mxPoint x="570" y="580" />
              <mxPoint x="530" y="590" />
              <mxPoint x="490" y="550" />
            </Array>
            <mxPoint as="offset" />
          </mxGeometry>
        </mxCell>
        <mxCell id="Uaa25SnmF0XbRMPknDft-34" value="INDEX" style="rounded=0;whiteSpace=wrap;html=1;verticalAlign=top;" parent="1" vertex="1">
          <mxGeometry x="520" y="160" width="200" height="200" as="geometry" />
        </mxCell>
        <mxCell id="Uaa25SnmF0XbRMPknDft-35" value="" style="endArrow=classic;html=1;rounded=0;" parent="1" source="Uaa25SnmF0XbRMPknDft-36" target="Uaa25SnmF0XbRMPknDft-39" edge="1">
          <mxGeometry width="50" height="50" relative="1" as="geometry">
            <mxPoint x="460" y="300" as="sourcePoint" />
            <mxPoint x="800" y="270" as="targetPoint" />
          </mxGeometry>
        </mxCell>
        <mxCell id="Uaa25SnmF0XbRMPknDft-36" value="REQUEST" style="ellipse;shape=cloud;whiteSpace=wrap;html=1;" parent="1" vertex="1">
          <mxGeometry x="560" y="200" width="120" height="40" as="geometry" />
        </mxCell>
        <mxCell id="Uaa25SnmF0XbRMPknDft-39" value="PARAMS" style="html=1;shadow=0;dashed=0;align=center;verticalAlign=middle;shape=mxgraph.arrows2.arrow;dy=0;dx=13.14;notch=0;" parent="1" vertex="1">
          <mxGeometry x="580" y="290" width="80" height="30" as="geometry" />
        </mxCell>
        <mxCell id="Uaa25SnmF0XbRMPknDft-40" value="" style="endArrow=classic;html=1;rounded=0;" parent="1" source="Uaa25SnmF0XbRMPknDft-39" edge="1">
          <mxGeometry width="50" height="50" relative="1" as="geometry">
            <mxPoint x="630" y="315" as="sourcePoint" />
            <mxPoint x="620" y="440" as="targetPoint" />
          </mxGeometry>
        </mxCell>
        <mxCell id="Uaa25SnmF0XbRMPknDft-42" value="PARAMS" style="html=1;shadow=0;dashed=0;align=center;verticalAlign=middle;shape=mxgraph.arrows2.arrow;dy=0;dx=13.14;notch=0;" parent="1" vertex="1">
          <mxGeometry x="820" y="440" width="80" height="30" as="geometry" />
        </mxCell>
        <mxCell id="Uaa25SnmF0XbRMPknDft-43" value="PARAMS" style="html=1;shadow=0;dashed=0;align=center;verticalAlign=middle;shape=mxgraph.arrows2.arrow;dy=0;dx=13.14;notch=0;" parent="1" vertex="1">
          <mxGeometry x="580" y="440" width="80" height="30" as="geometry" />
        </mxCell>
        <mxCell id="npE6UcHxAFBTRUkKk0RT-1" value="JSON" style="ellipse;shape=cloud;whiteSpace=wrap;html=1;" parent="1" vertex="1">
          <mxGeometry x="310" y="476.25" width="120" height="37.5" as="geometry" />
        </mxCell>
        <mxCell id="npE6UcHxAFBTRUkKk0RT-3" value="MONGODB" style="rounded=0;whiteSpace=wrap;html=1;verticalAlign=top;" parent="1" vertex="1">
          <mxGeometry x="990" y="470" width="130" height="50" as="geometry" />
        </mxCell>
        <mxCell id="npE6UcHxAFBTRUkKk0RT-4" value="" style="curved=1;endArrow=classic;html=1;rounded=0;" parent="1" source="Uaa25SnmF0XbRMPknDft-24" target="npE6UcHxAFBTRUkKk0RT-3" edge="1">
          <mxGeometry width="50" height="50" relative="1" as="geometry">
            <mxPoint x="840" y="542" as="sourcePoint" />
            <mxPoint x="658" y="541" as="targetPoint" />
            <Array as="points">
              <mxPoint x="950" y="490" />
            </Array>
          </mxGeometry>
        </mxCell>
        <mxCell id="npE6UcHxAFBTRUkKk0RT-5" value="" style="curved=1;endArrow=classic;html=1;rounded=0;" parent="1" source="npE6UcHxAFBTRUkKk0RT-3" target="Uaa25SnmF0XbRMPknDft-24" edge="1">
          <mxGeometry width="50" height="50" relative="1" as="geometry">
            <mxPoint x="1040" y="609" as="sourcePoint" />
            <mxPoint x="1150" y="572" as="targetPoint" />
            <Array as="points">
              <mxPoint x="980" y="570" />
            </Array>
          </mxGeometry>
        </mxCell>
        <mxCell id="npE6UcHxAFBTRUkKk0RT-11" value="" style="curved=1;endArrow=classic;html=1;rounded=0;" parent="1" source="npE6UcHxAFBTRUkKk0RT-9" target="Uaa25SnmF0XbRMPknDft-36" edge="1">
          <mxGeometry width="50" height="50" relative="1" as="geometry">
            <mxPoint x="280" y="200" as="sourcePoint" />
            <mxPoint x="221" y="288" as="targetPoint" />
            <Array as="points">
              <mxPoint x="390" y="220" />
            </Array>
          </mxGeometry>
        </mxCell>
      </root>
    </mxGraphModel>
  </diagram>
</mxfile>
